<svg width="168" height="49" viewBox="0 0 168 49" fill="none" xmlns="http://www.w3.org/2000/svg">
<g clip-path="url(#clip0_2_492)" filter="url(#filter0_d_2_492)">
<path d="M19.2375 23.3983L11.2837 1.66014H4L16.1593 31.465H22.2644L34.3651 1.66014H27.2508L19.2375 23.3983ZM58.794 16.5628C58.794 21.7773 55.3194 26.0337 49.8302 26.0337C44.5635 26.0337 40.8063 21.719 40.8063 16.4527C40.8063 11.2403 44.2833 6.98345 49.717 6.98345C55.0391 6.98345 58.794 11.2985 58.794 16.5628ZM65.5717 16.4527C65.5717 7.93632 58.9072 1.04297 49.8307 1.04297C40.7533 1.04297 34.0282 8.04796 34.0282 16.5632C34.0282 25.027 40.6974 31.9175 49.717 31.9175C58.8506 31.9175 65.5717 24.9122 65.5717 16.4527ZM95.8299 1.66014H88.7687L81.0936 23.6244L72.6872 1.66014H65.4601L77.7876 31.243C76.6665 33.8213 75.49 34.6621 73.5866 34.6621C72.1864 34.6621 70.8376 34.2128 69.6081 33.5394L67.3104 38.5829C69.3832 39.7032 71.4552 40.3754 74.3122 40.3754C79.0758 40.3754 81.7111 38.1363 84.0634 32.0818L95.8299 1.66014ZM119.417 22.5029V22.3912C119.417 17.0683 114.542 15.106 110.227 13.7628C106.753 12.6413 103.561 11.745 103.561 9.618V9.50637C103.561 7.77087 105.071 6.53612 107.706 6.53612C110.172 6.53612 113.197 7.60063 116.054 9.33573L118.744 4.51755C115.607 2.44636 111.573 1.1554 107.874 1.1554C101.993 1.1554 97.339 4.57417 97.339 10.1802V10.2882C97.339 15.9484 102.215 17.7405 106.584 18.9721C110.058 20.0382 113.197 20.8224 113.197 23.1196V23.2309C113.197 25.19 111.514 26.4236 108.602 26.4236C105.575 26.4236 102.105 25.19 98.909 22.7808L95.8834 27.3757C99.5812 30.2897 104.232 31.8027 108.435 31.8027C114.6 31.8035 119.417 28.722 119.417 22.5029Z" fill="white"/>
<path d="M127.356 2.96829C129.677 0.648316 129.677 0.648315 131.997 0.648315H156.125C157.971 0.648315 158.351 0.652701 159.591 1.82126L156.602 6.99148H123.334C123.333 6.99148 124.497 5.83209 127.356 2.96829Z" fill="white"/>
<path d="M162.448 4.67428C160.126 2.35391 159.591 1.82166 159.591 1.82166L143.542 29.5613L144.894 31.9012H146.757C149.077 31.9012 149.91 31.9012 151.397 29.5769C152.739 27.4877 163.714 8.26329 163.714 8.26329C164.473 6.69804 163.606 5.83647 162.448 4.67428Z" fill="white"/>
<path d="M130.489 6.99146H123.333C123.472 7.19678 136.334 29.5757 136.334 29.5757C137.363 31.3945 139.061 31.9 141.15 31.9H144.894L130.489 6.99146Z" fill="white"/>
<path d="M123.333 6.99146C123.333 6.99146 130.489 6.99145 136.304 17.0448L130.489 6.99146H123.333Z" fill="white"/>
<path d="M144.894 31.9013L143.542 29.5613L148.618 20.7858C148.619 20.7858 143.47 29.6897 144.894 31.9013Z" fill="white"/>
<path d="M159.591 1.82117L156.602 6.99138H141.32C141.32 6.99138 154.477 6.93636 159.591 1.82117Z" fill="white"/>
</g>
<defs>
<filter id="filter0_d_2_492" x="0" y="0.640015" width="168" height="47.744" filterUnits="userSpaceOnUse" color-interpolation-filters="sRGB">
<feFlood flood-opacity="0" result="BackgroundImageFix"/>
<feColorMatrix in="SourceAlpha" type="matrix" values="0 0 0 0 0 0 0 0 0 0 0 0 0 0 0 0 0 0 127 0" result="hardAlpha"/>
<feOffset dy="4"/>
<feGaussianBlur stdDeviation="2"/>
<feComposite in2="hardAlpha" operator="out"/>
<feColorMatrix type="matrix" values="0 0 0 0 0 0 0 0 0 0 0 0 0 0 0 0 0 0 0.25 0"/>
<feBlend mode="normal" in2="BackgroundImageFix" result="effect1_dropShadow_2_492"/>
<feBlend mode="normal" in="SourceGraphic" in2="effect1_dropShadow_2_492" result="shape"/>
</filter>
<clipPath id="clip0_2_492">
<rect width="160" height="39.744" fill="white" transform="translate(4 0.640015)"/>
</clipPath>
</defs>
</svg>
